<?xml version="1.0" encoding="utf-8"?>
<!-- Generator: Adobe Illustrator 24.0.0, SVG Export Plug-In . SVG Version: 6.00 Build 0)  -->
<svg version="1.1" id="图层_2" xmlns="http://www.w3.org/2000/svg" xmlns:xlink="http://www.w3.org/1999/xlink" x="0px" y="0px"
	 viewBox="0 0 652 652" style="enable-background:new 0 0 652 652;" xml:space="preserve">
<style type="text/css">
	.st0{fill:#15304D;}
</style>
<polygon class="st0" points="80.8,563.6 80.8,546.3 62.8,546.3 62.8,563.6 55.8,563.6 55.8,524.3 62.8,524.3 62.8,540 80.8,540 
	80.8,524.3 87.8,524.3 87.8,563.6 "/>
<path class="st0" d="M114.2,564.4c-10.1,0-18.9-7.7-18.9-20.4c0-12.7,8.8-20.5,18.9-20.5c10.1,0,18.8,7.6,18.8,20.4
	C133,556.7,124.3,564.4,114.2,564.4 M114.2,529.5c-7.5,0-11.8,6.2-11.8,14.5c0,7.9,4.6,14.5,11.8,14.5c7.4,0,11.7-6.3,11.7-14.5
	C125.9,536,121.3,529.5,114.2,529.5"/>
<polygon class="st0" points="155.6,530.5 155.6,563.6 148.5,563.6 148.5,530.5 136.2,530.5 136.2,524.3 167.5,524.3 168.4,530.5 "/>
<polygon class="st0" points="176.1,563.6 176.1,524.3 200.5,524.3 200.5,530.5 183.1,530.5 183.1,540.2 197.1,540.2 198.1,546.3 
	183.1,546.3 183.1,557.6 201.1,557.6 201.1,563.6 "/>
<polygon class="st0" points="210.6,563.6 210.6,524.3 217.5,524.3 217.5,557.6 232.4,557.6 233.4,563.6 "/>
<path class="st0" d="M251.7,564.1c-4.7,0-9.5-1.1-13.5-2.9l1-6.2c3.7,1.9,8.8,3.4,12.8,3.4c4.5,0,7.7-2,7.7-5.3
	c0-3.3-2.1-4.6-7.7-6.4c-8.2-2.9-12.4-5.4-12.4-11.5c0-6.8,5.6-11.4,13.2-11.4c4.5,0,8.4,1,11.4,2.3l-1,6.5
	c-3.6-1.8-7.1-2.9-10.6-2.9c-3.9,0-6.5,2.1-6.5,4.7c0,3,2.2,4,8.3,6.2c8.2,2.9,11.9,5.7,11.9,11.8
	C266.1,559.5,260.3,564.1,251.7,564.1"/>
<path class="st0" d="M321.4,564.1l-5.3-5.2c-3.2,3.5-7.3,5.6-12.2,5.6c-8.4,0-13-4.1-13-10.8c0-5.5,3.5-9.2,8.7-11.8
	c-2.5-2.8-3.8-5.1-3.8-8.7c0-5.3,3.9-9.7,10.8-9.7c3.9,0,7.5,1.1,10.2,2.5l-1,6.2c-3-1.9-6-3-8.9-3c-3.2,0-4.6,1.8-4.6,4.2
	c0,2.2,1,3.7,3.4,6.1l10.1,10.4c1.1-2.6,1.9-5.6,2.3-9.3l5.6,1.3c-0.7,4.6-2,8.7-3.9,12.2l8.4,8.5L321.4,564.1z M302.9,545.5
	c-3.3,1.8-5.2,4.3-5.2,7.4c0,3.7,2.5,6.1,6.9,6.1c2.9,0,5.8-1.2,8-3.8L302.9,545.5z"/>
<path class="st0" d="M376.2,564.1l-11.4-15.6h-4.3v15.2h-7v-39.3h12.1c9,0,14.8,4.3,14.8,12c0,5.9-3.3,9.5-8.2,11.2l11.1,14.9
	L376.2,564.1z M365.7,530.4h-5.1v12.7h5.1c5.1,0,7.9-2.3,7.9-6.6C373.6,532.5,370.8,530.4,365.7,530.4"/>
<polygon class="st0" points="391.4,563.6 391.4,524.3 415.8,524.3 415.8,530.5 398.3,530.5 398.3,540.2 412.3,540.2 413.3,546.3 
	398.3,546.3 398.3,557.6 416.3,557.6 416.3,563.6 "/>
<path class="st0" d="M437.5,564.1c-4.7,0-9.4-1.1-13.5-2.9l1-6.2c3.7,1.9,8.8,3.4,12.8,3.4c4.5,0,7.6-2,7.6-5.3
	c0-3.3-2.1-4.6-7.7-6.4c-8.2-2.9-12.4-5.4-12.4-11.5c0-6.8,5.5-11.4,13.1-11.4c4.5,0,8.4,1,11.4,2.3l-1,6.5
	c-3.6-1.8-7.1-2.9-10.6-2.9c-3.9,0-6.5,2.1-6.5,4.7c0,3,2.2,4,8.3,6.2c8.2,2.9,11.9,5.7,11.9,11.8
	C451.9,559.5,446.1,564.1,437.5,564.1"/>
<path class="st0" d="M477,564.4c-10.1,0-18.9-7.7-18.9-20.4c0-12.7,8.9-20.5,18.9-20.5c10.1,0,18.8,7.6,18.8,20.4
	C495.8,556.7,487.1,564.4,477,564.4 M476.7,529.5c-7.4,0-11.7,6.2-11.7,14.5c0,7.9,4.5,14.5,11.7,14.5c7.3,0,11.7-6.3,11.7-14.5
	C488.4,536,483.8,529.5,476.7,529.5"/>
<path class="st0" d="M526.6,564.1l-11.4-15.6H511v15.2h-7v-39.3h12.2c8.9,0,14.8,4.3,14.8,12c0,5.9-3.3,9.5-8.2,11.2l11.1,14.9
	L526.6,564.1z M516.1,530.4H511v12.7h5.1c5,0,7.9-2.3,7.9-6.6C524,532.5,521.2,530.4,516.1,530.4"/>
<polygon class="st0" points="556.3,530.5 556.3,563.6 549.3,563.6 549.3,530.5 537,530.5 537,524.3 568.2,524.3 569.1,530.5 "/>
<path class="st0" d="M586.4,564.1c-4.7,0-9.4-1.1-13.5-2.9l1-6.2c3.7,1.9,8.7,3.4,12.8,3.4c4.5,0,7.6-2,7.6-5.3
	c0-3.3-2.1-4.6-7.7-6.4c-8.2-2.9-12.4-5.4-12.4-11.5c0-6.8,5.6-11.4,13.2-11.4c4.5,0,8.4,1,11.4,2.3l-1,6.5c-3.6-1.8-7-2.9-10.6-2.9
	c-3.9,0-6.5,2.1-6.5,4.7c0,3,2.2,4,8.3,6.2c8.2,2.9,11.9,5.7,11.9,11.8C600.8,559.5,595,564.1,586.4,564.1"/>
<path class="st0" d="M373,203.1c0-16.8-11.5-30.1-32.3-36.7v-38h38.6v93.3h-12.1C371.4,215.7,373,208.9,373,203.1 M319.7,88.9
	c-69.6,0-121.1,44.4-121.1,91.9c0,24.5,13.8,45.2,31.2,59.6l1.4-0.9c-13.8-11.4-26.3-29.3-26.3-53.8c3.7-52,67.7-81.3,124.4-81.3
	c40.3,0,112.8,9.3,112.8,76.7c0,35.2-37.6,80.9-116.4,80.9c-40.1,0-71.5-21.6-71.5-52.7c0-26.9,21-46.1,52.2-46.1
	c8.7,0,16.8,2.1,22.9,3.7c-13.1-2.4-33.1,1-43.7,9.3v45.5h38.3v-51.7c7.3,1.3,12.9,4,16.8,6.5v30.9v14.4h10.1
	c-7.9,8.9-22.6,14.3-35.4,12.3v1.9c36.7,2.9,52.3-14.5,52.3-34.1c0-23-21.7-36.5-43.7-39.3v-34h-38.3v34.5
	c-25,5-49.5,19.9-49.5,44.5c0,37.8,53,61.3,98.7,61.3c70,0,123.8-33.9,123.8-81.3C458.6,129.9,380.8,88.9,319.7,88.9"/>
<polygon class="st0" points="151.7,324.5 151.7,458.7 162.2,460.1 162.2,467.9 110.6,467.9 110.6,460.1 121.7,458.7 121.7,397.7 
	55.8,397.7 55.8,458.7 65.9,460.1 65.9,467.9 15.3,467.9 15.3,460.1 25.5,458.7 25.5,324.5 15.3,323.1 15.3,315.5 65.9,315.5 
	65.9,323.1 55.8,324.5 55.8,381.9 121.7,381.9 121.7,324.5 110.6,323.1 110.6,315.5 162.2,315.5 162.2,323.1 "/>
<path class="st0" d="M220.1,459.6l9.7,1.4v6.9h-47.4V461l9.7-1.4v-91.8l-9.7-1.4v-6.9h37.7V459.6z M223.6,325.2
	c0,10.2-6.9,17.8-16.4,17.8c-9.7,0-16.4-6.9-16.4-17.1c0-9.7,6.7-17.3,16.4-17.3C216.7,308.6,223.6,316.2,223.6,325.2"/>
<polygon class="st0" points="250.4,461 259.9,459.6 259.9,319.3 250.4,317.8 250.4,310.8 288.1,310.8 288.1,459.6 297.8,461 
	297.8,467.9 250.4,467.9 "/>
<path class="st0" d="M355.1,359.5h25.5v10.2h-25.5v64.5c0,16.6,3.5,21.9,18.5,21.9c5.5,0,10.4,0,15-1.1v7.4
	c-13.7,4.9-25.2,6.9-34.9,6.9c-21.8,0-26.9-9.9-26.9-28.9v-70.8h-19.8v-10.2h20.5v-22.7l27.5-8.3V359.5z"/>
<path class="st0" d="M507.5,414.8c0,33.7-22.7,56.4-58.3,56.4c-34.5,0-56.4-14.8-56.4-56.4c0-34.9,22.7-58.3,58.3-58.3
	C486.1,356.5,507.5,377.5,507.5,414.8 M476.5,414.1c0-34.3-10.2-49.4-26.6-49.4c-15.9,0-26.1,14.4-26.1,49.4
	c0,34.4,10.2,48.7,26.1,48.7C467,462.8,476.5,449.2,476.5,414.1"/>
<path class="st0" d="M638.9,461v6.9h-47.4V461l9.5-1.4v-61.7c0-17.1-6.3-24.8-19.2-24.8c-6,0-15.5,4.2-22.4,9.1v77.4l9.7,1.4v6.9
	h-47.6V461l9.7-1.4v-91.1l-9.7-1.4v-7.6h37.9v15c11.8-9.5,23.1-17.1,39-17.1c21.3,0,30.8,12.5,30.8,37.1v65.1L638.9,461z"/>
<path class="st0" d="M464.8,263.6L464.8,263.6l4.3-11.2h2.1v13.8h-1.6v-10.5h-0.1l-4,10.5h-1.5l-4.2-10.5h0v10.5h-1.7v-13.8h2.3
	L464.8,263.6z M450,253.6h-3.4v-1.3h8.5v1.3h-3.4v12.5H450V253.6"/>
</svg>
